# xmcd CD database file
#
# Track frame offsets:
#	150
#	29209
#	51957
#	65028
#	85731
#	106154
#	131892
#	152104
#
# Disc length: 2301 seconds
#
# Revision: 0
# Processed by: cddbd v1.5.1PL2 Copyright (c) Steve Scherf et al.
# Submitted via: CDex 1.51
#
DISCID=7108fb08
DTITLE=Luigi Texidor - Betun Negro
DYEAR=1997
DGENRE=Salsa
TTITLE0=Una Mujer Especial
TTITLE1=Trinidad
TTITLE2=Mis Delirios 
TTITLE3=La Mariposa Volando
TTITLE4=Vengo Ya Mismo 
TTITLE5=Las Mujeres Me Vuelven Loco 
TTITLE6=Sombrero De Paja 
TTITLE7=Santa Isabel 
EXTD=YEAR: 1997
EXTT0=
EXTT1=
EXTT2=
EXTT3=
EXTT4=
EXTT5=
EXTT6=
EXTT7=
PLAYORDER=
